# xmcd CD database file
#
# Track frame offsets:
#	182
#	11717
#	21465
#	33745
#	45140
#	56320
#	97650
#	110235
#	121577
#	136107
#	147285
#	159862
#	171122
#	184480
#	198817
#	207027
#	218462
#
# Disc length: 3568 seconds
#
# Revision: 0
# Processed by: cddbd v1.5.1PL0 Copyright (c) Steve Scherf et al.
# Submitted via: CDex 1.51
#
DISCID=d90dee11
DTITLE=Dinah Washington - It's magic
DYEAR=1950
DGENRE=Jazz
TTITLE0=It's magic
TTITLE1=September in the train
TTITLE2=Dream
TTITLE3=My man's an undertaker
TTITLE4=This bitter earth
TTITLE5=Trouble in Lowlands
TTITLE6=Baby you've got what it takes
TTITLE7=What a difference a day makes
TTITLE8=I don't hurt anymore
TTITLE9=Fat daddy
TTITLE10=Teach me tonight
TTITLE11=A rockin' good way
TTITLE12=Pillow blues
TTITLE13=I'll drown in my tears
TTITLE14=The jitterbug waltz
TTITLE15=Salty papa blues
TTITLE16=Blue skies
EXTD=YEAR: 1950
EXTT0=
EXTT1=
EXTT2=
EXTT3=
EXTT4=
EXTT5=
EXTT6=
EXTT7=
EXTT8=
EXTT9=
EXTT10=
EXTT11=
EXTT12=
EXTT13=
EXTT14=
EXTT15=
EXTT16=
PLAYORDER=
